<svg width="284" height="38" viewBox="0 0 284 38" fill="none" xmlns="http://www.w3.org/2000/svg">
<g clip-path="url(#clip0_21_421)">
<path d="M15.1181 7.95789C18.8583 7.95789 22.0255 8.69176 24.6198 10.1595C27.2206 11.6208 28.521 13.8868 28.521 16.9575H18.7231C18.7231 15.9372 18.2628 15.2162 17.3455 14.7945C16.7081 14.4437 15.9099 14.2666 14.9507 14.2666C12.4079 14.2666 11.1397 14.8653 11.1397 16.0563C11.1397 16.7354 11.5807 17.215 12.4658 17.4983C13.3478 17.7815 14.7962 18.0841 16.8047 18.3995C19.2767 18.7536 21.3399 19.1688 22.9976 19.6484C24.6617 20.1215 26.1133 20.9681 27.3493 22.1848C28.5853 23.4047 29.2033 25.1074 29.2033 27.2961C29.2033 30.8593 27.8676 33.3989 25.1992 34.9181C22.5373 36.4374 19.0514 37.197 14.7447 37.197C12.2727 37.197 9.94234 36.8526 7.75359 36.167C5.56484 35.4814 3.77843 34.4128 2.39759 32.9611C1.02318 31.5127 0.337585 29.6748 0.337585 27.4506H10.1355V27.6695C10.1676 28.8733 10.6698 29.7134 11.6418 30.193C12.6107 30.6662 13.6439 30.9011 14.7447 30.9011C17.6802 30.9011 19.148 30.2123 19.148 28.8283C19.148 28.1266 18.6877 27.6148 17.7703 27.2961C16.8498 26.9807 15.3498 26.6459 13.2641 26.2919C10.7567 25.8638 8.69668 25.4035 7.08409 24.9143C5.47793 24.4186 4.07455 23.5753 2.87396 22.3908C1.67015 21.2063 1.07146 19.555 1.07146 17.4339C1.07146 14.0091 2.3654 11.5758 4.95971 10.1338C7.56046 8.68532 10.9466 7.95789 15.1181 7.95789Z" fill="#E4E2DD"/>
<path d="M49.8095 8.58876V15.7473H43.887V26.3949C43.887 27.6663 44.0962 28.5933 44.5178 29.1759C44.9363 29.7617 45.7152 30.0514 46.8482 30.0514H49.8095V36.2443C48.9662 36.5275 47.8718 36.7528 46.5263 36.9266C45.1873 37.1069 44.0222 37.197 43.0372 37.197C39.9279 37.197 37.5332 36.6337 35.853 35.5104C34.1792 34.3774 33.3423 32.4526 33.3423 29.7295V15.7473H29.4155V8.58876H33.7672L36.0332 0.117004H43.887V8.58876H49.8095Z" fill="#E4E2DD"/>
<path d="M68.6756 7.90637C69.4803 7.90637 70.2013 8.00615 70.8386 8.2025C71.4824 8.3924 71.8042 8.50506 71.8042 8.53725V17.3824H68.4052C66.2165 17.3824 64.6361 17.9489 63.6672 19.0819C62.6952 20.2149 62.2124 21.8951 62.2124 24.116V36.5661H51.6677V8.58875H60.3069L60.9892 12.8246C61.6233 11.2024 62.6276 9.97925 64.002 9.15525C65.3828 8.32481 66.9407 7.90637 68.6756 7.90637Z" fill="#E4E2DD"/>
<path d="M86.6276 7.95789C91.7518 7.95789 95.6658 9.1617 98.3696 11.5629C101.073 13.9673 102.425 17.6399 102.425 22.5839V24.3864H81.439C81.439 26.3949 81.8896 27.9141 82.7908 28.9441C83.6921 29.9677 85.1116 30.4763 87.0525 30.4763C88.8196 30.4763 90.1167 30.1093 90.9407 29.369C91.7712 28.6223 92.1896 27.6309 92.1896 26.3949H102.425C102.425 29.7874 101.131 32.4333 98.5498 34.3388C95.9748 36.2443 92.2153 37.197 87.2713 37.197C82.0763 37.197 78.0464 35.9932 75.1817 33.5791C72.3235 31.1586 70.8943 27.4957 70.8943 22.5839C70.8943 17.7783 72.2881 14.1379 75.0787 11.6659C77.8662 9.19389 81.7158 7.95789 86.6276 7.95789ZM87.0525 14.6915C83.7307 14.6915 81.8767 16.2623 81.4905 19.4038H91.7647C91.7647 17.9553 91.3463 16.8094 90.5158 15.9661C89.6918 15.1164 88.5363 14.6915 87.0525 14.6915Z" fill="#E4E2DD"/>
<path d="M118.943 7.95789C124.067 7.95789 127.981 9.1617 130.685 11.5629C133.388 13.9673 134.74 17.6399 134.74 22.5839V24.3864H113.754C113.754 26.3949 114.205 27.9141 115.106 28.9441C116.007 29.9677 117.427 30.4763 119.367 30.4763C121.135 30.4763 122.432 30.1093 123.256 29.369C124.086 28.6223 124.505 27.6309 124.505 26.3949H134.74C134.74 29.7874 133.446 32.4333 130.865 34.3388C128.29 36.2443 124.53 37.197 119.586 37.197C114.391 37.197 110.361 35.9932 107.497 33.5791C104.638 31.1586 103.209 27.4957 103.209 22.5839C103.209 17.7783 104.603 14.1379 107.394 11.6659C110.181 9.19389 114.031 7.95789 118.943 7.95789ZM119.367 14.6915C116.046 14.6915 114.192 16.2623 113.805 19.4038H124.08C124.08 17.9553 123.661 16.8094 122.831 15.9661C122.007 15.1164 120.851 14.6915 119.367 14.6915Z" fill="#E4E2DD"/>
<path d="M155.442 8.58876V15.7473H149.519V26.3949C149.519 27.6663 149.729 28.5933 150.15 29.1759C150.569 29.7617 151.348 30.0514 152.481 30.0514H155.442V36.2443C154.599 36.5275 153.504 36.7528 152.159 36.9266C150.82 37.1069 149.655 37.197 148.67 37.197C145.56 37.197 143.166 36.6337 141.485 35.5104C139.812 34.3774 138.975 32.4526 138.975 29.7295V15.7473H135.048V8.58876H139.4L141.666 0.117004H149.519V8.58876H155.442Z" fill="#E4E2DD"/>
<path d="M171.759 7.95789C176.349 7.95789 180.066 8.94282 182.908 10.9063C185.757 12.8633 187.183 15.8567 187.183 19.8801H176.96C176.96 16.6968 175.225 15.1035 171.759 15.1035C168.299 15.1035 166.57 17.0991 166.57 21.0904V24.116C166.57 28.0751 168.373 30.0514 171.978 30.0514C175.573 30.0514 177.372 28.4259 177.372 25.1718H187.183C187.183 29.2338 185.757 32.253 182.908 34.2358C180.066 36.2121 176.349 37.197 171.759 37.197C166.847 37.197 162.997 35.961 160.21 33.489C157.419 31.017 156.025 27.383 156.025 22.5839C156.025 17.7783 157.419 14.1379 160.21 11.6659C162.997 9.19389 166.847 7.95789 171.759 7.95789Z" fill="#E4E2DD"/>
<path d="M204.074 7.95789C208.982 7.95789 212.842 9.20354 215.648 11.6916C218.461 14.1829 219.871 17.8137 219.871 22.5839C219.871 27.3476 218.461 30.9752 215.648 33.4633C212.842 35.9546 208.982 37.197 204.074 37.197C199.162 37.197 195.312 35.961 192.525 33.489C189.734 31.017 188.34 27.383 188.34 22.5839C188.34 17.7783 189.734 14.1379 192.525 11.6659C195.312 9.19389 199.162 7.95789 204.074 7.95789ZM204.074 15.1035C200.613 15.1035 198.885 17.0991 198.885 21.0904V24.116C198.885 28.0751 200.613 30.0514 204.074 30.0514C207.576 30.0514 209.327 28.0751 209.327 24.116V21.0904C209.327 17.0991 207.576 15.1035 204.074 15.1035Z" fill="#E4E2DD"/>
<path d="M259.074 7.95789C262.248 7.95789 264.63 8.86879 266.22 10.6874C267.807 12.5092 268.602 15.0971 268.602 18.451V36.5661H258.057V19.7128C258.057 18.5218 257.764 17.5626 257.182 16.8416C256.606 16.1142 255.785 15.7473 254.723 15.7473C253.487 15.7473 252.476 16.1721 251.697 17.0219C250.924 17.8652 250.538 18.9016 250.538 20.1376V36.5661H239.994V19.7128C239.994 18.5218 239.701 17.5626 239.118 16.8416C238.532 16.1142 237.715 15.7473 236.659 15.7473C235.423 15.7473 234.412 16.1721 233.633 17.0219C232.861 17.8652 232.475 18.9016 232.475 20.1376V36.5661H221.93V8.58876H230.569L231.251 12.7731C232.314 11.2989 233.717 10.1273 235.462 9.25826C237.213 8.39242 239.057 7.95789 240.998 7.95789C245.201 7.95789 248.031 9.56404 249.482 12.7731C250.57 11.2989 251.971 10.1273 253.68 9.25826C255.395 8.39242 257.195 7.95789 259.074 7.95789Z" fill="#E4E2DD"/>
<path d="M271.937 36.5661V26.0215H283.164V36.5661H271.937Z" fill="#E4E2DD"/>
</g>
<defs>
<clipPath id="clip0_21_421">
<rect width="284" height="38" fill="white"/>
</clipPath>
</defs>
</svg>
